<svg width="1200" height="800" viewBox="0 0 1200 800" fill="none" xmlns="http://www.w3.org/2000/svg">
  <!-- Background -->
  <rect width="1200" height="800" fill="#ffe4e6"/>
  
  <!-- Border -->
  <rect x="2" y="2" width="1196" height="796" stroke="#fb7185" stroke-width="4" fill="none" rx="16"/>
  
  <!-- Placeholder Text -->
  <text x="600" y="360" font-family="Inter, system-ui, sans-serif" font-size="36" font-weight="600" fill="#525252" text-anchor="middle">
    Client Feedback Screenshot
  </text>
  <text x="600" y="410" font-family="Inter, system-ui, sans-serif" font-size="20" fill="#737373" text-anchor="middle">
    1200 × 800 px
  </text>
  <text x="600" y="450" font-family="Inter, system-ui, sans-serif" font-size="18" fill="#a3a3a3" text-anchor="middle">
    Features Section Image
  </text>
  
  <!-- Mock Feedback Cards -->
  <rect x="150" y="120" width="900" height="140" fill="white" rx="12" opacity="0.6"/>
  <rect x="150" y="280" width="900" height="140" fill="white" rx="12" opacity="0.6"/>
  <rect x="150" y="440" width="900" height="140" fill="white" rx="12" opacity="0.6"/>
  
  <!-- Mock Star Ratings -->
  <circle cx="200" cy="190" r="12" fill="#fb7185" opacity="0.5"/>
  <circle cx="230" cy="190" r="12" fill="#fb7185" opacity="0.5"/>
  <circle cx="260" cy="190" r="12" fill="#fb7185" opacity="0.5"/>
  <circle cx="290" cy="190" r="12" fill="#fb7185" opacity="0.5"/>
  <circle cx="320" cy="190" r="12" fill="#fb7185" opacity="0.5"/>
  
  <circle cx="200" cy="350" r="12" fill="#fb7185" opacity="0.5"/>
  <circle cx="230" cy="350" r="12" fill="#fb7185" opacity="0.5"/>
  <circle cx="260" cy="350" r="12" fill="#fb7185" opacity="0.5"/>
  <circle cx="290" cy="350" r="12" fill="#fb7185" opacity="0.5"/>
  
  <circle cx="200" cy="510" r="12" fill="#fb7185" opacity="0.5"/>
  <circle cx="230" cy="510" r="12" fill="#fb7185" opacity="0.5"/>
  <circle cx="260" cy="510" r="12" fill="#fb7185" opacity="0.5"/>
  <circle cx="290" cy="510" r="12" fill="#fb7185" opacity="0.5"/>
  <circle cx="320" cy="510" r="12" fill="#fb7185" opacity="0.5"/>
  
  <!-- Mock Text Lines -->
  <rect x="200" y="220" width="600" height="12" fill="#d4d4d4" rx="4" opacity="0.4"/>
  <rect x="200" y="240" width="400" height="12" fill="#d4d4d4" rx="4" opacity="0.4"/>
  
  <rect x="200" y="380" width="550" height="12" fill="#d4d4d4" rx="4" opacity="0.4"/>
  <rect x="200" y="400" width="450" height="12" fill="#d4d4d4" rx="4" opacity="0.4"/>
  
  <rect x="200" y="540" width="650" height="12" fill="#d4d4d4" rx="4" opacity="0.4"/>
  <rect x="200" y="560" width="500" height="12" fill="#d4d4d4" rx="4" opacity="0.4"/>
  
  <!-- Image Generation Prompt -->
  <text x="600" y="750" font-family="monospace" font-size="14" fill="#a3a3a3" text-anchor="middle">
    AI Prompt: Member feedback page with 10-star ratings, testimonials, and rose pink star highlights
  </text>
</svg>